# xmcd
#
# Track frame offsets:
#	150
#	6565
#	18502
#	31919
#	40710
#	55432
#	67042
#	79994
#	89231
#	97346
#	107153
#	121846
#	131019
#	139106
#
# Disc length: 2031 seconds
#
# Revision: 0
# Processed by: cddbd v1.5.2PL0 Copyright (c) Steve Scherf et al.
# Submitted via: EasyCDDAExtractor 11.1.0.1
#
DISCID=cd07ed0e
DTITLE=Bethany Zill - All About Cowboys For Kids
DYEAR=2005
DGENRE=Country
TTITLE0=All About Cowboys
TTITLE1=I Wanna Be A Cowboy's Sweetheart
TTITLE2=Where The Cowboy Calls His Home
TTITLE3=She'll Be Comin' Around The Mountin
TTITLE4=Get Along Little Dogies
TTITLE5=Back In The Saddle Again
TTITLE6=My Grandpa Is A Cowboy
TTITLE7=Wait For The Wagon
TTITLE8=Cowgirls
TTITLE9=Wahoo!
TTITLE10=Red River Valley
TTITLE11=Let's Go For A Ride
TTITLE12=Old Chisholm Trail
TTITLE13=Home On The Range
EXTD=
EXTT0=
EXTT1=
EXTT2=
EXTT3=
EXTT4=
EXTT5=
EXTT6=
EXTT7=
EXTT8=
EXTT9=
EXTT10=
EXTT11=
EXTT12=
EXTT13=
PLAYORDER=
